<?xml version="1.0" encoding="UTF-8"?>
<svg viewBox="0 0 197.67197 200.83945" xmlns="http://www.w3.org/2000/svg">
 <defs>
  <linearGradient id="b" x1="2152.9" x2="2191" y1="203.93" y2="272.81" gradientTransform="matrix(-.99259 .14866 .025075 1.0037 4410.1 -275.65)" gradientUnits="userSpaceOnUse">
   <stop stop-color="#412407" offset="0"/>
   <stop offset="1"/>
  </linearGradient>
  <linearGradient id="c" x1="2192.5" x2="2246.7" y1="178.98" y2="251.96" gradientTransform="matrix(-.99259 .14866 .025075 1.0037 4407.9 -275.33)" gradientUnits="userSpaceOnUse">
   <stop stop-color="#61360a" offset="0"/>
   <stop stop-color="#050200" offset="1"/>
  </linearGradient>
  <radialGradient id="a" cx="2442.7" cy="423.85" r="82.646" gradientTransform="matrix(.19966 .033446 0 .18828 1658.4 173.48)" gradientUnits="userSpaceOnUse">
   <stop stop-color="#dadada" offset="0"/>
   <stop stop-color="#888" offset="1"/>
  </radialGradient>
 </defs>
 <g transform="translate(-61.503 -141.83)" fill-rule="evenodd">
  <path d="m229.73219,145.01501-101.6149.8252-15.8497,64.6796 1.3658.1706-48.2606,35.0005-.5691-.0854v.4837l-.1138.0854 .1138.0284 .2561,27.5166-.2846-.0569 .313,20.5165 .1708.0284c-.1449,2.0228-.048,6.3374.1138,10.5l.0854,8.992 16.2196,3.3009v-.1139l76.5171,15.9922 .0569.9389 15.8497,5.6627-.0284-.8252 9.1911-8.3944 23.9028-20.2603 .0284.2844 12.122-10.3008-6.3171-76.574 .5975-.5122 1.1953.1423 .1138-.6545c47.091-8.3487 55.9746-62.2091 14.7399-76.9154l.0854-.4553zm-152.0666,95.4685-3.3293,2.3048h-.0569l3.3862-2.3048z" fill="#492f17" stroke="#000" stroke-linecap="round" stroke-linejoin="round" stroke-width="6.374"/>
  <g transform="matrix(1.099 0 0 1.099 -2248.8 -94.351)">
   <g transform="matrix(-.99259 .14866 .025075 1.0037 4410.1 -275.65)">
    <path d="m2193.8 238.64 87.622-23.149v44.194l-49.359 20.662-38.263-41.707z" fill="#492f17"/>
    <path transform="matrix(.82845,.56006,0,1,0,0)" d="m2643.5-1198.4h47.903v26.709h-47.903z" fill="#85552b"/>
    <path transform="matrix(.85061,.5258,0,1,0,0)" d="m2576.2-1093.8h46.201v24.232h-46.201z" fill="#684322"/>
    <path transform="matrix(.85061,.5258,0,1,0,0)" d="m2578.1-1117.3h45.677v23.926h-45.677z" fill="#784d27"/>
    <path d="m2230.2 334.68 98.718-35.202s0.5739-18.558-0.1913-18.558-99.292 33.48-99.292 33.48l0.7653 20.279z" fill="#5e3c1e"/>
    <path d="m2230.3 314.6 98.718-32.715-0.1913-18.558-98.718 30.228 0.1914 21.045z" fill="#674221"/>
    <path d="m2280.7 216.26v51.464l44.576-27.932-44.576-23.532z" fill="#1f130a"/>
    <path d="m2230.2 294.89 0.9566-16.262 96.04-27.932-1.3391 22.001-95.657 22.192z" fill="#794e27"/>
    <path d="m2231.5 279.59 0.1914-16.262 96.04-25.062-0.574 14.731-95.657 26.593z" fill="#6b4523"/>
   </g>
   <path d="m2239.9 288.74-9.5025 8.7474 4.2437 70.679 11.012-9.3589-5.7531-70.068z" fill="#412407"/>
   <path d="m2210 315.09-9.5025 8.7474 4.0394 70.132 10.622-9.6861-5.1594-69.193z" fill="#412407"/>
   <path d="m2200.8 323.4-14.357-2.4756 3.6212 68.652 14.425 5.1639-3.6886-71.341z" fill="#512d09"/>
   <path d="m2117.1 310.98-12.05-1.6647 0.5952 61.974 14.752 2.9948-3.2971-63.304z" fill="#512d09"/>
   <path d="m2240.9 285.88-90.22-7.4767 13.971-55.791 88.908-1.8671-12.659 65.134z" fill="url(#c)"/>
   <path d="m2154.2 279.66 12.042-56.319c23.219-0.28138 41.145 45.531-12.042 56.319z" fill="#1f130a"/>
   <path d="m2149.6 277.49 91.002 11.054-39.538 35.012-96.05-13.729 44.586-32.336zm2.7227 3.0554-38.606 26.214 86.653 12.681 31.499-29.023-79.546-9.8731z" fill="#523e2c"/>
   <path d="m2241.2 285.57 12.775-63.789c24.811-0.08838 44.043 52.075-12.775 63.789z" fill="url(#b)"/>
   <path d="m2162.7 218.54 92.451-0.74897-13.607 70.986-93.283-11.373 14.439-58.864zm3.8958 5.1465-11.097 51.815 84.076 9.2262 12.68-63.229-85.658 2.1874z" fill="#523e2c"/>
   <path d="m2253.9 217.81c39.122 12.909 30.846 63.579-13.406 70.577l13.406-70.577zm1.1552 6.4477-10.876 57.09c35.797-5.6613 42.523-46.647 10.876-57.09z" fill="#523e2c"/>
   <path d="m2223.2 283.76c-1.7654 1.1981-2.4698 2.9771-2.9405 4.8839l-8.9005-1.4014c-2.0253-0.62472 0.3858-4.7859 2.4675-4.4712l9.3735 0.98877z" fill="#917f6e"/>
   <path transform="matrix(-.21836 -.40339 -.43637 .58697 2806 1041.9)" d="m2209.1 230.97a3.1114 3.7202 0 1 1 -0.0024 0.00567" fill="#b3a69a"/>
   <path d="m2176.8 278.11c-1.7656 1.1981-2.4697 2.9771-2.9406 4.8839l-8.9002-1.4015c-2.0254-0.62468 0.3857-4.7859 2.4673-4.4712l9.3735 0.98878z" fill="#917f6e"/>
   <path transform="matrix(-.21836 -.40339 -.43637 .58697 2759.6 1036.2)" d="m2209.1 230.97a3.1114 3.7202 0 1 1 -0.0024 0.00567" fill="#b3a69a"/>
   <path d="m2136.9 326.57c8.5391-2.6379 20.341-1.6161 28.449 4.8707 4.4185 3.535 3.212 27.879-13.613 25.165-15.017-2.4208-20.529-28.278-14.836-30.036z" fill="url(#a)"/>
   <path d="m2150.0997,332.32004c-1.2451-.18245-2.4347.30793-3.0462,1.38909l-.0051.00427c-.8731,1.55115-.2236,3.73773 1.4438,4.92625l-3.3329,7.5204 10.0293,1.68002-2.9591-8.80988c.4324-.23963.7983-.59411 1.0597-1.05629 .8893-1.5726.2164-3.80491-1.5052-4.98262-.5379-.36804-1.1183-.58831-1.6843-.67124z"/>
  </g>
 </g>
</svg>
