<?xml version="1.0" encoding="UTF-8"?>
<svg viewBox="0 0 163.64795 157.33084" xmlns="http://www.w3.org/2000/svg">
 <defs>
  <linearGradient id="c" x1="2295" x2="2243.8" y1="139.49" y2="219.3" gradientTransform="matrix(-.59228 .12678 -.19895 -.57233 2733.3 1176.6)" gradientUnits="userSpaceOnUse">
   <stop stop-color="#61360a" offset="0"/>
   <stop stop-color="#050200" offset="1"/>
  </linearGradient>
  <linearGradient id="b" x1="2152.9" x2="2191" y1="203.93" y2="272.81" gradientTransform="matrix(.0049906 .59327 -.37382 .18922 1449.6 49.776)" gradientUnits="userSpaceOnUse">
   <stop stop-color="#412407" offset="0"/>
   <stop offset="1"/>
  </linearGradient>
  <radialGradient id="a" cx="2442.7" cy="423.85" r="82.646" gradientTransform="matrix(.1205 .020184 0 .11362 1046.2 1303.5)" gradientUnits="userSpaceOnUse">
   <stop stop-color="#dadada" offset="0"/>
   <stop stop-color="#888" offset="1"/>
  </radialGradient>
 </defs>
 <g transform="translate(-244.24 -188.42)" fill-rule="evenodd">
  <path d="m355.67646,191.60969-87.9277,20.7156c-8.2244-1.623-15.8741,3.8549-19.5206,18.3254l-.7967.1992 .7682.5406 2.1058,76.83 13.1464,8.9067v-.2562l26.2646,17.7279 9.7318,7.1424-.1423-2.4757h.0285l.1991,3.3009 15.1384-7.3701-.0569-.9106 74.326-24.2441v.1138l15.7643-5.0366-.8536-8.5366c-.2966-4.2718-.6759-8.8042-1.0529-10.8701l.1707-.0569-1.9349-20.4026-.3131.0853-2.7317-27.4311 .1138-.0285-.1138-.0569-.0568-.4837-.5407.1423-.3131-.1708 .5691-.1423c-1.1596-21.8511-14.6013-43.8541-41.9719-45.5573z" fill="#492f17" stroke="#000" stroke-linecap="round" stroke-linejoin="round" stroke-width="6.374"/>
  <g transform="matrix(-1.8103 .19834 .19834 1.8103 2505.2 -2531.8)">
   <g transform="matrix(-.59902 .089713 .015133 .60573 2706.9 1032.5)">
    <path d="m2193.8 238.64 87.622-23.149v44.194l-49.359 20.662-38.263-41.707z" fill="#492f17"/>
    <path transform="matrix(.82845,.56006,0,1,0,0)" d="m2643.6-1198.7h47.819v27.07h-47.819z" fill="#85552b"/>
    <path transform="matrix(.85061,.5258,0,1,0,0)" d="m2576.1-1093.9h46.243v24.332h-46.243z" fill="#684322"/>
    <path transform="matrix(.85061,.5258,0,1,0,0)" d="m2578.1-1117.3h45.677v23.926h-45.677z" fill="#784d27"/>
    <path d="m2230.2 334.68 98.718-35.202s0.5739-18.558-0.1913-18.558-99.292 33.48-99.292 33.48l0.7653 20.279z" fill="#5e3c1e"/>
    <path d="m2230.3 314.6 98.718-32.715-0.1913-18.558-98.718 30.228 0.1914 21.045z" fill="#674221"/>
    <path d="m2280.7 216.26v51.464l44.576-27.932-44.576-23.532z" fill="#1f130a"/>
    <path d="m2230.2 294.89 0.9566-16.262 96.04-27.932-1.3391 22.001-95.657 22.192z" fill="#794e27"/>
    <path d="m2231.5 279.59 0.1914-16.262 96.04-25.062-0.574 14.731-95.657 26.593z" fill="#6b4523"/>
   </g>
   <path d="m1397.2 1373.1-5.7347 5.2789 2.561 42.654 6.6456-5.648-3.4719-42.285z" fill="#412407"/>
   <path d="m1379.1 1389-5.7347 5.279 2.4378 42.324 6.4106-5.8455-3.1137-41.757z" fill="#412407"/>
   <path d="m1373.6 1394-8.6644-1.494 2.1854 41.431 8.7051 3.1164-2.2261-43.053z" fill="#512d09"/>
   <path d="m1323.1 1386.5-7.2718-1.0046 0.3592 37.401 8.9024 1.8073-1.9898-38.203z" fill="#512d09"/>
   <path d="m1335 1395.9c5.1533-1.5919 12.276-0.9753 17.169 2.9395 2.6666 2.1333 1.9385 16.824-8.2151 15.187-9.0625-1.4609-12.389-17.065-8.9536-18.126z" fill="url(#a)"/>
   <path d="m1342.9892,1399.3858c-.7514-.1101-1.4693.1859-1.8383.8383l-.0031.0026c-.5269.9361-.1349,2.2557.8713,2.9729l-2.0114,4.5385 6.0526,1.0139-1.7858-5.3167c.261-.1446.4818-.3585.6396-.6374 .5366-.9491.1306-2.2963-.9084-3.007-.3246-.2221-.6749-.355-1.0165-.4051z"/>
   <path d="m1342.7 1366.3 54.919 6.6709-23.861 21.129-57.966-8.2856 26.907-19.515zm1.6431 1.8439-23.298 15.82 52.294 7.653 19.009-17.515-48.005-5.9583z" fill="#523e2c"/>
   <path d="m1387.6 1364.3-51.484-6.3192c-14.838 2.5665-20.858 15.377-20.184 27.373l57.263 6.9444 14.405-27.999z" fill="url(#c)"/>
   <path d="m1373.2 1392.1 22.515-18.241c-1.4702-14.095-21.612-16.369-22.515 18.241z" fill="url(#b)"/>
   <path d="m1397.2 1373.1c-7.1584-19.579-24.93-6.3268-24.846 20.198l24.846-20.198zm-2.4616 0.6515-20.518 17.742c-0.0687-21.457 14.727-33.58 20.518-17.742z" fill="#523e2c"/>
  </g>
 </g>
</svg>
