<svg id="Layer_1" data-name="Layer 1" xmlns="http://www.w3.org/2000/svg" viewBox="0 0 2000 242.39"><defs><style>.cls-1{fill:#39b54a;}.cls-2{fill:#8dc63f;}</style></defs><path class="cls-1" d="M2000,58.49v183.9H0V54.14C3.88,59.76,10.06,70.6,15.37,69.82c6.32-1,5-17.12,13.89-21.51,7.54-3.71,18.47,2.87,26.61,9.14,7.1-.39,14.41,1,18.86-11.19C79,34.5,75.86,23.18,79.43,17.87a3.22,3.22,0,0,1,2-1.57c10.53-2,22.29,47.12,43.37,49.47C150,68.6,178.5,1.67,182.94,4.15c.48.26.43,1.13-.09,4.57-2.65,17.2-5.49,23.73-5.44,31.7a37,37,0,0,0,3.66,15.68,51.68,51.68,0,0,1,20.77-6,46,46,0,0,1,15,1c3.87-19.6,3.18-45.59,8.36-47.51S232.28,28,243.9,39.81c10.5,10.67,16-3.7,29.83,0,10.06,2.66,15.11,12.28,20,21.69,14,1.31,23.13,7.36,31.36,14.37,8.79-10.32,15.54-30,31.18-29.61,10.06.26,17.37,6.92,23.9,14.46a91.46,91.46,0,0,1,44.86-10.59,74.51,74.51,0,0,1,14.24,1.53,14.42,14.42,0,0,1,1.87-.87c2.74-12.94.83-23.43,3.74-23.91,3.36-.52,6.8,13.33,11.33,29.83.3.39.61.83.95,1.26,11.8,5.62,26.13,14.5,50,27.44,2.78-4,5.57-8.41,8.44-12.76a52.33,52.33,0,0,0,1.53-10.93c.52-18.16-9.89-31.18-6.45-33.53,3.09-2.14,12.28,8.18,29.88,22.25a19.2,19.2,0,0,1,4.18-.31c9.4.4,14.32,7,27,22.69,8.14,4.75,14.94,6.84,20.29,4.4,12.37-5.7,7.28-31.53,14.5-33.23,13.2-3.09,40.81,81.17,52.26,78.39,7.49-1.83-5.36-37.58,13.24-55.48,19.59-18.9,55.35.35,72.24-20.64,9.45-11.76,2.48-23.08,10.32-28.39C771.9,6.15,805.3,61,854.73,65.77c62.49,6.09,119.93-70.85,128.9-61.88,4.26,4.27-11.85,18.81-7.15,35.92,6.15,22.52,45.64,40,67.11,28.4,25-13.5,16.63-61.93,32.27-64.54,11.54-1.92,15.67,24.34,41.28,36.14,23.12,10.67,35.19-3.7,65.8,0,22.69,2.75,33.83,12.76,44.89,22.39a17.9,17.9,0,0,1,7.32,6.09c7.45,5.88,15.89,10.89,28.44,13a48.4,48.4,0,0,0,21.16-.78,72.81,72.81,0,0,0,5.36-14.9c4.57-18.72,2.26-38.06,4.09-38.71,2-.65,4,23.56,7.27,45.94,4-2.79,8.1-5.62,12.28-8.45,3.22-2.17,6.49-4.35,9.71-6.44a38.87,38.87,0,0,1-1.83-13.28c.18-4.66,1.09-5.18,1.44-5.32,1.44-.52,3.27,2.18,7.1,5.67a53.73,53.73,0,0,0,7.66,5.79,72.75,72.75,0,0,1,27.05-4.53c.52,0,1,0,1.48,0,.3-1.22.65-2,1.13-2.31.74-.39,1.57.57,2.48,2.44,16.46,1,29.52,5.49,41.15,11,7.1-.39,14.42,1,18.86-11.19,4.31-11.76,1.13-23.08,4.7-28.39a3.24,3.24,0,0,1,2-1.57c10.93-2,25.38,49.9,43.37,49.47,18.9-.39,46.25-60.31,58.44-65.45a2.23,2.23,0,0,1,2-.18c3.48,2-6.62,19.25-6.32,40.33a64.83,64.83,0,0,0,2.14,15.63,51.69,51.69,0,0,1,20.81-6,45.83,45.83,0,0,1,14.94,1c3.87-19.6,3.18-45.59,8.36-47.51s7.1,24.34,18.73,36.14c10.49,10.67,16-3.7,29.87,0,19.11,5.1,20.16,35.41,36.58,41.46,19.16,7.1,23-35.58,45.94-35,10.06.26,17.42,6.92,24,14.46a91.17,91.17,0,0,1,44.85-10.59,75.24,75.24,0,0,1,14.24,1.53,13,13,0,0,1,4.18-1.53c5.71-1,9.93,2.4,13.68,7.84,11.8,5.62,26.12,14.5,50,27.44,10.36-14.68,20.12-36,37.54-35.28,21.25.92,26.08,45.21,49.16,49C1960.42,101,1976.62,93.64,2000,58.49Z"/><path class="cls-2" d="M2000,135.92V242.39H0V131.57c3.88,5.61,10.06,16.46,15.37,15.67,6.32-1,5-17.11,13.89-21.51,7.54-3.7,18.47,2.87,26.61,9.15,7.1-.4,14.41,1,18.86-11.2,4.31-11.75,1.13-23.08,4.7-28.39,7.92-11.84,23.47,44.55,45.42,47.9,28,4.27,52.73-79.6,56.43-72.42,2.05,4-8.18,25.26-5.27,46.47a50.76,50.76,0,0,0,5.06,16.29,51.52,51.52,0,0,1,20.77-6,46.28,46.28,0,0,1,15,1C220.69,109,220,83,225.18,81.1s7.1,24.34,18.72,36.14c10.5,10.67,16-3.7,29.83,0,10.06,2.66,15.11,12.28,20,21.69,14,1.3,23.13,7.35,31.36,14.37,8.79-10.33,15.54-30,31.18-29.62,10.06.27,17.37,6.93,23.9,14.46a91.46,91.46,0,0,1,44.86-10.58,75.36,75.36,0,0,1,14.24,1.52,15.88,15.88,0,0,1,1.87-.87c2.74-12.93.83-23.43,3.74-23.9,3.36-.53,6.8,13.32,11.33,29.82.3.4.61.83.95,1.27,11.8,5.62,26.13,14.5,50,27.43,2.78-4,5.57-8.4,8.44-12.76a52.24,52.24,0,0,0,1.53-10.93c.52-18.16-9.89-31.18-6.45-33.53,3.09-2.13,12.28,8.19,29.88,22.25a19.21,19.21,0,0,1,4.18-.3c9.4.39,14.32,7,27,22.69,8.14,4.74,14.94,6.83,20.29,4.4,12.37-5.71,7.28-31.53,14.5-33.23,13.2-3.09,40.81,81.17,52.26,78.38,7.49-1.83-5.36-37.58,13.24-55.48,19.59-18.89,55.35.35,72.24-20.64,9.45-11.75,2.48-23.08,10.32-28.39,17.46-11.84,51.78,44.55,100.16,47.9C916.35,147.46,971,63.59,979.1,70.77c4.48,4-18.07,25.26-11.63,46.47,7.53,24.78,52.74,42.41,76.12,28.39,25.13-15.15,16.81-62,32.27-64.53,11.54-1.92,15.67,24.34,41.28,36.14,23.12,10.67,35.19-3.7,65.8,0,22.69,2.74,33.83,12.76,44.89,22.38a17.93,17.93,0,0,1,7.32,6.1c7.45,5.88,15.89,10.88,28.44,13a48.24,48.24,0,0,0,21.16-.79,72.71,72.71,0,0,0,5.36-14.89c4.57-18.73,2.26-38.06,4.09-38.71,2-.66,4,23.55,7.27,45.94,8.23-5.23,16-11.67,25.39-16.9-.61-15.07-4.18-25.65-2.83-27.74s5.66,8.41,13.8,22.6a73.55,73.55,0,0,1,27.05-4.53c.52,0,1,0,1.48,0,.3-1.22.65-2,1.13-2.31.74-.39,1.57.57,2.48,2.44,16.46,1,29.52,5.48,41.15,11,7.1-.4,14.42,1,18.86-11.2,4.31-11.75,1.13-23.08,4.7-28.39,7.93-11.84,23.47,44.55,45.42,47.9,28,4.27,52.73-79.6,56.44-72.42,2,4-8.19,25.26-5.27,46.47a52.56,52.56,0,0,0,5,16.29,51.53,51.53,0,0,1,20.81-6,46.12,46.12,0,0,1,14.94,1c3.87-19.59,3.18-45.59,8.36-47.5s7.1,24.34,18.73,36.14c10.49,10.67,16-3.7,29.87,0,19.11,5.09,20.16,35.4,36.58,41.46,19.16,7.09,23-35.58,45.94-35,10.06.27,17.42,6.93,24,14.46a91.17,91.17,0,0,1,44.85-10.58,76.09,76.09,0,0,1,14.24,1.52,13,13,0,0,1,4.18-1.52c5.71-1,9.93,2.39,13.68,7.84,11.8,5.62,26.12,14.5,50,27.43,10.36-14.67,20.12-36,37.54-35.27,21.25.91,26.08,45.2,49.16,49C1960.42,178.47,1976.62,171.06,2000,135.92Z"/></svg>