<svg id="Layer_1" data-name="Layer 1" xmlns="http://www.w3.org/2000/svg" xmlns:xlink="http://www.w3.org/1999/xlink" viewBox="0 0 526.93 196.86"><defs><style>.cls-1{fill:#808285;}.cls-2{fill:url(#linear-gradient);}.cls-3{fill:url(#linear-gradient-2);}.cls-4,.cls-5{fill:none;stroke:#231f20;stroke-miterlimit:10;}.cls-5{stroke-width:1px;}.cls-6{fill:#6d3429;}</style><linearGradient id="linear-gradient" x1="269.34" y1="5.76" x2="269.34" y2="3.02" gradientUnits="userSpaceOnUse"><stop offset="0" stop-color="#6d6e71"/><stop offset="1" stop-color="#939598"/></linearGradient><linearGradient id="linear-gradient-2" x1="261.45" y1="186.3" x2="261.45" y2="3.02" xlink:href="#linear-gradient"/></defs><path class="cls-1" d="M270.65,13.58l-1.36,2.74c-.41-.87-.85-1.78-1.27-2.74Z"/><path class="cls-1" d="M491.4,13.58c-1,10,.44,17.75-2,18.37S483,24.49,478.47,13.58h-2.85c-.21,1.36-.59,2.19-1.34,2.38-.93.23-2-.65-3.23-2.38H433c-3.08,19.87-5.61,37.9-9.31,37.85-2.67,0-4.46-9.45-6.46-21.57-.33,6.16-1.09,10-3,10.45-1.63.39-2.92-1.84-4.54-5.4a1.57,1.57,0,0,1-1.08.53c-2,0-3.54-5.47-5-13.39-.59-1-1.22-2.07-1.89-3.11-.47,3.15-1.23,5-2.56,5.37-2.33.56-4-4.28-6.9-10.73H274.82c-1.68,2.27-3.11,4.12-4.24,5.37,2.15,4.33,3.68,7.17,2.89,7.66-1.16.72-5.26-5-11.07-13H187a10.89,10.89,0,0,1-6.61,3.9c-3.36.5-6.49-1.12-9.48-3.9H139.45c-6.73,10.57-8.74,21.68-12.21,20.84-1-.25-1.75-1.49-2.22-3.55-2.35,14.38-4.25,26.41-7.26,26.45-3.57,0-6.05-16.66-9-35.62-1.88,11.17-3.62,19.59-6.15,19.62-3,0-5.31-12.26-7.74-27.74H65.39c-5.5,13.72-10.25,25-13.29,24.26s-.38-11.59-2.88-24.26H43.49C40.9,19,38.68,22.27,37,21.84c-1.53-.38-1.56-3.53-1.6-8.26h-33V99.45a88.47,88.47,0,0,1,8.58,3.28v10.79c8.38,2.18,17.09,5.41,24.61,10.32,1.44,5,2.5,8.51,4.24,9.79,3.85,14.1.51,27,3.7,27.75,2.42.61,5.9-6.36,10-16.11,6,15.7,1.61,31.22,5.12,32.11,5.92,1.49,18.29-42.59,30.09-61.45a75.62,75.62,0,0,0,7.88,7.39c4.82,25.69,7.67,57.61,12.59,57.55,2.52,0,4.26-8.46,6.14-19.63,2.92,19,5.41,35.66,9,35.62,3,0,4.93-12.07,7.27-26.45.48,2.06,1.17,3.3,2.23,3.55,4.94,1.2,6.91-21.88,23.84-33.1a31.44,31.44,0,0,1,5.6-3,14.64,14.64,0,0,0,4.51,2.7c5.88,8.88,12,17.47,19.2,16.41,6.87-1,10.7-9.23,14-18.67,9.12,1.32,17.63,1.44,24.77-4.34,6.67-5.41,7.72-13.43,8.07-21.23,1.4,1,2.81,2.1,4.22,3.3,13.54,16.6,24.83,35.35,26.89,34.08.56-.35-.07-1.92-1.26-4.35,8.52,11.67,14.87,21.27,16.36,20.34.79-.49-.75-3.33-2.9-7.66,5.5-6.1,18.1-26.21,31.64-40.74a18.67,18.67,0,0,0,5,6.15,21.88,21.88,0,0,0,8.13,4.14,20.48,20.48,0,0,0,7,11.86c8.36,6.78,18.62,5.43,29.53,3.58,2.42,4.15,5.34,7.07,9.27,7.65,5.29.79,10-3.68,14.5-9.65a33.1,33.1,0,0,1,12.86,4.07c5.53,9.74,7.49,19.08,10.68,18.3,1.33-.32,2.1-2.22,2.56-5.36.67,1,1.3,2.07,1.88,3.1,1.5,7.92,3,13.37,5.05,13.39a1.52,1.52,0,0,0,1.07-.53c1.62,3.56,2.92,5.79,4.55,5.4,1.94-.47,2.68-4.29,3-10.45,2,12.12,3.81,21.54,6.47,21.58,4.89.06,7.74-31.47,12.51-57.07.23.1.47.2.71.28,5.79,2,13.28-3.05,20.87-10.83,6.83,17,12.85,33.05,16.47,32.14,1.58-.4,1.55-3.76,1.6-8.77,5.59,14,10.42,25.54,13.5,24.77,3.91-1-2-20.05,7.54-37.34.63-1.14,1.31-2.23,2-3.28,3.59,5.75,5.28,9.4,7.9,9.16,3.32-.31,4.37-6.58,7.22-15.89V13.58ZM275.77,155.86a73.78,73.78,0,0,1-6-16.9c4,5.5,7,9.71,8.84,11.27C277.51,152.41,276.53,154.31,275.77,155.86Zm3.74-7.65c-.56-1.29-1.44-3-2.45-5,1.84-2,4.47-5.64,7.67-10.09A70.46,70.46,0,0,1,279.51,148.21Zm-3.74-7.67a88.74,88.74,0,0,1-4.35-10.62c3.54-4.94,7.66-10.63,12.08-16.27.21.52.43,1,.6,1.57.26.78.48,1.57.67,2.36C282.86,127.09,278.19,135.6,275.77,140.54Z"/><path class="cls-1" d="M1,11.21l1.34,31.2c3.85.31,7.68.67,11.3,1.1C19.2,46.68,19.69,49,24,49.12c2.6.05,4.3-.77,7.89-2.06.71.23,1.41.48,2,.73,9.51,3.9,3.64,8.18,7.53,8.41,3.09.17,7.92-2.44,13.51-5.58,0,1.13,0,1.89,1.6,2,3.62.2,9.63-3.42,16.46-7.24,7.59,1.76,15.08,2.88,20.88,2.44l.71-.06c4.76,5.76,7.61,12.85,12.5,12.84,2.67,0,4.47-2.13,6.47-4.86.33,1.39,1.08,2.25,3,2.35a8.68,8.68,0,0,0,4.54-1.21,4.88,4.88,0,0,0,1.07.12c2,0,3.56-1.23,5.05-3,.59-.24,1.21-.47,1.89-.7a3,3,0,0,0,2.56,1.21c3.19.17,5.15-1.93,10.68-4.12a126.12,126.12,0,0,1,12.86-.92,44.45,44.45,0,0,0,14.5,2.17A27.59,27.59,0,0,0,179,49.89c10.9.42,21.16.72,29.54-.8,4-.73,5.95-1.66,7-2.67a71,71,0,0,0,8.12-.93,22.84,22.84,0,0,0,5-1.39c13.54,3.27,26.14,7.8,31.64,9.17-2.16,1-3.68,1.61-2.91,1.72,1.5.21,7.84-2,16.37-4.57-1.18.54-1.81.9-1.25,1,2,.29,13.35-3.93,26.88-7.66,1.41-.27,2.81-.52,4.21-.75.35,1.76,1.4,3.56,8.08,4.78,7.13,1.3,15.65,1.27,24.76,1a25.36,25.36,0,0,0,14,4.2c7.16.24,13.31-1.7,19.18-3.69a43,43,0,0,0,4.51-.61q2.84.26,5.61.66c16.92,2.53,18.89,7.72,23.84,7.45a3.3,3.3,0,0,0,2.22-.8c2.36,3.24,4.25,5.94,7.27,5.95,3.57,0,6-3.74,9-8,1.87,2.51,3.61,4.41,6.14,4.41,4.92,0,7.77-7.16,12.59-12.94,2.57-.46,5.23-1,7.87-1.67,11.82,4.25,24.17,14.16,30.09,13.83,3.51-.2-.89-3.69,5.12-7.23,4.08,2.2,7.56,3.77,10,3.63,3.19-.18-.13-3.07,3.7-6.24a8.74,8.74,0,0,0,4.24-2.21c5.79-.85,12.28-1.47,18.77-1.94q2.88-17.06,5.78-34.1c-5.41-.1-13.41-.18-23.11,0-17.37.33-29,1.29-36.89,1.78-12.89.82-27.69.57-57.28.07C375,10.71,371.13,9.8,344.59,9.84c-13.72,0-10.65.25-37.81.56-37.15.43-35.17-.11-59.11.37-17.19.34-26.61.79-47.56.89-4.74,0-10.64.05-18.66,0-18.53-.12-23.84-.5-40.45-.45-6.69,0-7.56.09-13.77.07-10.85,0-15-.27-23.15-.35-6.81-.08-9.21,0-24,.28-10.45.18-24.06.38-32.44.45C36.27,11.75,20.43,11.73,1,11.21ZM253.23,43.53c.18-.12.38-.23.59-.35,4.43,1.27,8.55,2.55,12.09,3.66a32,32,0,0,1-4.36,2.39c-2.4-1.11-7.08-3-9-5.17A5.81,5.81,0,0,1,253.23,43.53Zm-.63,4c3.2,1,5.83,1.81,7.67,2.27-1,.46-1.89.85-2.45,1.13A18.28,18.28,0,0,1,252.6,47.55Zm9,5.13c-.76-.35-1.73-.78-2.78-1.27,1.8-.35,4.89-1.3,8.83-2.53C266.31,50.3,263.79,51.63,261.55,52.68Z"/><path class="cls-2" d="M270.65,3l-1.36,2.74C268.88,4.89,268.44,4,268,3Z"/><path class="cls-3" d="M491.4,3c-1,10,.44,17.75-2,18.37S483,13.93,478.47,3h-2.85c-.21,1.36-.59,2.19-1.34,2.38-.93.23-2-.65-3.23-2.38H433c-3.08,19.87-5.61,37.9-9.31,37.85-2.67,0-4.46-9.45-6.46-21.57-.33,6.16-1.09,10-3,10.45-1.63.39-2.92-1.84-4.54-5.4a1.57,1.57,0,0,1-1.08.53c-2,0-3.54-5.47-5-13.39-.59-1-1.22-2.07-1.89-3.11-.47,3.15-1.23,5-2.56,5.37-2.33.56-4-4.28-6.9-10.73H274.82c-1.68,2.27-3.11,4.12-4.24,5.37,2.15,4.33,3.68,7.17,2.89,7.66-1.16.72-5.26-5-11.07-13H187a10.89,10.89,0,0,1-6.61,3.9c-3.36.5-6.49-1.12-9.48-3.9H139.45c-6.73,10.57-8.74,21.68-12.21,20.84-1-.25-1.75-1.49-2.22-3.55-2.35,14.38-4.25,26.41-7.26,26.45-3.57,0-6.05-16.66-9-35.62-1.88,11.17-3.62,19.59-6.15,19.62-3,0-5.31-12.26-7.74-27.74H65.39c-5.5,13.72-10.25,25-13.29,24.26S51.72,15.69,49.22,3H43.49C40.9,8.4,38.68,11.71,37,11.28c-1.53-.38-1.56-3.53-1.6-8.26h-33V88.89a88.47,88.47,0,0,1,8.58,3.28V103c8.38,2.18,17.09,5.41,24.61,10.32,1.44,5,2.5,8.51,4.24,9.79,3.85,14.1.51,27,3.7,27.75,2.42.61,5.9-6.36,10-16.11,6,15.7,1.61,31.22,5.12,32.11,5.92,1.49,18.29-42.59,30.09-61.45a75.62,75.62,0,0,0,7.88,7.39c4.82,25.69,7.67,57.61,12.59,57.55,2.52,0,4.26-8.46,6.14-19.63,2.92,19,5.41,35.66,9,35.62,3,0,4.93-12.07,7.27-26.45.48,2.06,1.17,3.3,2.23,3.55,4.94,1.2,6.91-21.88,23.84-33.1a31.44,31.44,0,0,1,5.6-3,14.64,14.64,0,0,0,4.51,2.7c5.88,8.88,12,17.47,19.2,16.41,6.87-1,10.7-9.23,14-18.67,9.12,1.32,17.63,1.44,24.77-4.34,6.67-5.41,7.72-13.43,8.07-21.23,1.4,1,2.81,2.1,4.22,3.3,13.54,16.6,24.83,35.35,26.89,34.08.56-.35-.07-1.92-1.26-4.35,8.52,11.67,14.87,21.27,16.36,20.34.79-.49-.75-3.33-2.9-7.66,5.5-6.1,18.1-26.21,31.64-40.74a18.67,18.67,0,0,0,5,6.15,21.88,21.88,0,0,0,8.13,4.14,20.48,20.48,0,0,0,7,11.86c8.36,6.78,18.62,5.43,29.53,3.58,2.42,4.15,5.34,7.07,9.27,7.65,5.29.79,10-3.68,14.5-9.65A33.1,33.1,0,0,1,394.94,135c5.53,9.74,7.49,19.08,10.68,18.3,1.33-.32,2.1-2.22,2.56-5.36.67,1,1.3,2.07,1.88,3.1,1.5,7.92,3,13.37,5.05,13.39a1.52,1.52,0,0,0,1.07-.53c1.62,3.56,2.92,5.79,4.55,5.4,1.94-.47,2.68-4.29,3-10.45,2,12.12,3.81,21.54,6.47,21.58,4.89.06,7.74-31.47,12.51-57.07.23.1.47.2.71.28,5.79,2,13.28-3,20.87-10.83,6.83,17,12.85,33.05,16.47,32.14,1.58-.4,1.55-3.76,1.6-8.77,5.59,14,10.42,25.54,13.5,24.77,3.91-1-2-20.05,7.54-37.34.63-1.14,1.31-2.23,2-3.28,3.59,5.75,5.28,9.4,7.9,9.16,3.32-.31,4.37-6.58,7.22-15.89V3ZM275.77,145.3a73.78,73.78,0,0,1-6-16.9c4,5.5,7,9.71,8.84,11.27C277.51,141.85,276.53,143.75,275.77,145.3Zm3.74-7.65c-.56-1.29-1.44-3-2.45-5,1.84-2,4.47-5.64,7.67-10.09A70.46,70.46,0,0,1,279.51,137.65ZM275.77,130a88.74,88.74,0,0,1-4.35-10.62c3.54-4.94,7.66-10.63,12.08-16.27.21.52.43,1,.6,1.57.26.78.48,1.57.67,2.36C282.86,116.53,278.19,125,275.77,130Z"/><path class="cls-4" d="M1,8.22l1.34,31.2c3.85.31,7.68.67,11.3,1.1C19.2,43.69,19.69,46,24,46.13c2.6,0,4.3-.77,7.89-2.06.71.23,1.41.48,2,.73,9.51,3.9,3.64,8.18,7.53,8.41,3.09.17,7.92-2.44,13.51-5.58,0,1.13,0,1.89,1.6,2,3.62.2,9.63-3.42,16.46-7.24,7.59,1.76,15.08,2.88,20.88,2.44l.71-.06c4.76,5.76,7.61,12.85,12.5,12.84,2.67,0,4.47-2.13,6.47-4.86.33,1.39,1.08,2.25,3,2.35a8.68,8.68,0,0,0,4.54-1.21,4.88,4.88,0,0,0,1.07.12c2,0,3.56-1.23,5.05-3,.59-.24,1.21-.47,1.89-.7a3,3,0,0,0,2.56,1.21c3.19.17,5.15-1.93,10.68-4.12a126.12,126.12,0,0,1,12.86-.92,44.45,44.45,0,0,0,14.5,2.17A27.59,27.59,0,0,0,179,46.9c10.9.42,21.16.72,29.54-.8,4-.73,5.95-1.66,7-2.67a71,71,0,0,0,8.12-.93,22.84,22.84,0,0,0,5-1.39c13.54,3.27,26.14,7.8,31.64,9.17-2.16,1-3.68,1.61-2.91,1.72,1.5.21,7.84-2,16.37-4.57-1.18.54-1.81.9-1.25,1,2,.29,13.35-3.93,26.88-7.66,1.41-.27,2.81-.52,4.21-.75.35,1.76,1.4,3.56,8.08,4.78,7.13,1.3,15.65,1.27,24.76,1a25.36,25.36,0,0,0,14,4.2c7.16.24,13.31-1.7,19.18-3.69a43,43,0,0,0,4.51-.61q2.84.26,5.61.66c16.92,2.53,18.89,7.72,23.84,7.45a3.3,3.3,0,0,0,2.22-.8c2.36,3.24,4.25,5.94,7.27,5.95,3.57,0,6-3.74,9-8,1.87,2.51,3.61,4.41,6.14,4.41,4.92,0,7.77-7.16,12.59-12.94,2.57-.46,5.23-1,7.87-1.67,11.82,4.25,24.17,14.16,30.09,13.83,3.51-.2-.89-3.69,5.12-7.23,4.08,2.2,7.56,3.77,10,3.63,3.19-.18-.13-3.07,3.7-6.24a8.74,8.74,0,0,0,4.24-2.21c5.79-.85,12.28-1.47,18.77-1.94q2.88-17.05,5.78-34.1c-5.41-.1-13.41-.18-23.11,0-17.37.33-29,1.29-36.89,1.78-12.89.82-27.69.57-57.28.07C375,7.72,371.13,6.81,344.59,6.85c-13.72,0-10.65.25-37.81.56-37.15.43-35.17-.11-59.11.37-17.19.34-26.61.79-47.56.89-4.74,0-10.64.05-18.66,0-18.53-.12-23.84-.5-40.45-.45-6.69,0-7.56.09-13.77.07-10.85,0-15-.27-23.15-.35-6.81-.08-9.21,0-24,.28-10.45.18-24.06.38-32.44.45C36.27,8.76,20.43,8.74,1,8.22ZM253.23,40.54c.18-.12.38-.23.59-.35,4.43,1.27,8.55,2.55,12.09,3.66a32,32,0,0,1-4.36,2.39c-2.4-1.11-7.08-3-9-5.17A5.81,5.81,0,0,1,253.23,40.54Zm-.63,4c3.2,1,5.83,1.81,7.67,2.27-1,.46-1.89.85-2.45,1.13A18.28,18.28,0,0,1,252.6,44.56Zm9,5.13c-.76-.35-1.73-.78-2.78-1.27,1.8-.35,4.89-1.3,8.83-2.53C266.31,47.31,263.79,48.64,261.55,49.69Z"/><path class="cls-4" d="M.52,23.56,1.86,54.75c3.85.31,7.68.67,11.3,1.1,5.56,3.17,6.05,5.52,10.36,5.61,2.6,0,4.3-.77,7.88-2.06.72.23,1.41.48,2,.73C43,64,37.07,68.31,41,68.54c3.09.17,7.92-2.44,13.51-5.58,0,1.13,0,1.89,1.6,2,3.62.2,9.63-3.42,16.46-7.24,7.59,1.76,15.08,2.88,20.88,2.44l.71-.06c4.76,5.76,7.61,12.85,12.5,12.84,2.67,0,4.47-2.13,6.47-4.86.33,1.39,1.08,2.25,3,2.35a8.68,8.68,0,0,0,4.54-1.21,4.88,4.88,0,0,0,1.07.12c2,0,3.56-1.23,5-3,.59-.24,1.21-.47,1.88-.7a3,3,0,0,0,2.56,1.21c3.2.17,5.16-1.93,10.69-4.12a126.12,126.12,0,0,1,12.86-.92A44.45,44.45,0,0,0,169.27,64a27.59,27.59,0,0,0,9.27-1.72c10.9.42,21.16.72,29.54-.8,4-.73,5.95-1.66,7-2.67a71,71,0,0,0,8.12-.93,22.84,22.84,0,0,0,5-1.39c13.54,3.27,26.14,7.8,31.64,9.17-2.16,1-3.68,1.61-2.91,1.72,1.5.21,7.84-2,16.37-4.57-1.18.54-1.82.9-1.26,1,2.06.29,13.35-3.93,26.89-7.66,1.41-.27,2.81-.52,4.21-.75.35,1.76,1.4,3.56,8.08,4.78,7.13,1.3,15.65,1.27,24.76,1A25.33,25.33,0,0,0,350,65.28c7.16.24,13.3-1.7,19.18-3.69a43,43,0,0,0,4.51-.61q2.83.26,5.61.66c16.92,2.53,18.89,7.72,23.84,7.45a3.3,3.3,0,0,0,2.22-.8c2.36,3.24,4.25,5.94,7.27,5.95,3.56,0,6-3.74,9-8,1.88,2.51,3.62,4.41,6.15,4.41,4.92,0,7.77-7.16,12.59-12.94,2.57-.46,5.23-1,7.87-1.67,11.82,4.25,24.17,14.16,30.09,13.83,3.51-.2-.89-3.69,5.12-7.23,4.08,2.2,7.56,3.77,10,3.63,3.19-.18-.14-3.07,3.7-6.24a8.74,8.74,0,0,0,4.24-2.21c5.79-.85,12.28-1.47,18.77-1.94q2.88-17,5.78-34.09c-5.41-.1-13.41-.18-23.12,0-17.36.33-29,1.28-36.88,1.78-12.89.81-27.69.56-57.29.07-34.07-.57-37.92-1.48-64.46-1.45-13.73,0-10.65.26-37.81.57-37.15.42-35.17-.12-59.11.36-17.19.35-26.61.79-47.56.89-4.74,0-10.64.05-18.66,0-18.53-.11-23.84-.5-40.45-.44-6.69,0-7.56.09-13.77.07-10.85,0-15.06-.27-23.15-.36-6.81-.07-9.21,0-24,.29-10.45.18-24.06.37-32.44.44C35.78,24.1,19.94,24.08.52,23.56ZM252.75,55.87c.17-.12.38-.23.59-.35,4.42,1.27,8.55,2.55,12.09,3.66a32,32,0,0,1-4.36,2.39c-2.4-1.11-7.08-3-9-5.17A7,7,0,0,1,252.75,55.87Zm-.63,4c3.2,1,5.83,1.81,7.67,2.27-1,.46-1.89.85-2.45,1.13A18.28,18.28,0,0,1,252.12,59.89ZM261.07,65c-.76-.35-1.73-.78-2.78-1.27,1.8-.35,4.88-1.3,8.83-2.53C265.83,62.64,263.31,64,261.07,65Z"/><path class="cls-5" d="M3.38,19.2v8.3c8.46,2.18,17.23,5.41,24.82,10.32,1.45,5,2.52,8.51,4.27,9.79,3.87,14.1.51,27,3.73,27.75C38.63,76,42.14,69,46.26,59.25c6.06,15.7,1.62,31.22,5.16,32.11,6,1.49,18.43-42.59,30.34-61.45a74.88,74.88,0,0,0,7.93,7.39c4.86,25.69,7.73,57.61,12.7,57.55,2.54,0,4.3-8.46,6.18-19.63,3,19,5.46,35.66,9.05,35.62,3,0,5-12.07,7.32-26.45.48,2.06,1.18,3.3,2.24,3.55,5,1.2,7-21.88,24-33.1a31.49,31.49,0,0,1,5.65-3,14.88,14.88,0,0,0,4.54,2.7c5.93,8.88,12.13,17.47,19.36,16.41,6.92-1,10.79-9.23,14.14-18.67,9.19,1.32,17.77,1.44,25-4.34,6.74-5.41,7.79-13.43,8.15-21.23,1.41,1,2.83,2.1,4.25,3.3,13.64,16.6,25,35.35,27.1,34.08.56-.35-.07-1.92-1.26-4.35,8.59,11.67,15,21.27,16.48,20.34.8-.49-.74-3.33-2.92-7.66,5.54-6.1,18.26-26.21,31.9-40.74a18.47,18.47,0,0,0,5,6.15A22.08,22.08,0,0,0,316.77,42a20.47,20.47,0,0,0,7.05,11.86c8.43,6.78,18.77,5.43,29.78,3.58,2.43,4.15,5.38,7.07,9.33,7.65,5.34.79,10.11-3.68,14.62-9.65a33.58,33.58,0,0,1,13,4.07c5.56,9.74,7.54,19.08,10.75,18.3,1.35-.32,2.13-2.22,2.58-5.36.68,1,1.32,2.07,1.91,3.1,1.5,7.92,3,13.37,5.09,13.39a1.52,1.52,0,0,0,1.07-.53c1.63,3.56,2.95,5.79,4.58,5.4,2-.47,2.72-4.29,3.05-10.45,2,12.12,3.83,21.54,6.52,21.58,4.93.06,7.8-31.47,12.61-57.07.23.1.47.2.71.28,5.84,2,13.4-3.05,21-10.83,6.88,17,13,33.05,16.6,32.14,1.6-.4,1.58-3.76,1.62-8.77,5.64,13.95,10.51,25.54,13.61,24.77,3.94-1-2-20,7.6-37.34.63-1.14,1.33-2.23,2-3.28,3.63,5.75,5.34,9.4,8,9.16,3.35-.31,4.4-6.58,7.28-15.89V19.2Zm267,50.64a73.75,73.75,0,0,1-6.11-16.9c4,5.5,7.11,9.71,8.91,11.27C272.14,66.39,271.14,68.29,270.39,69.84Zm3.77-7.65c-.57-1.29-1.45-3-2.48-5,1.86-2,4.51-5.64,7.73-10.09A70.46,70.46,0,0,1,274.16,62.19Zm-3.77-7.67A88.53,88.53,0,0,1,266,43.9c3.58-4.94,7.72-10.63,12.19-16.27.2.52.42,1,.61,1.57.26.78.48,1.57.66,2.36C277.53,41.07,272.82,49.58,270.39,54.52Z"/><path class="cls-6" d="M1,1.84,2.34,32.31c3.85.3,7.68.65,11.3,1.07,5.56,3.1,6.05,5.39,10.36,5.48,2.6,0,4.3-.75,7.89-2,.71.22,1.41.47,2,.71,9.51,3.81,3.64,8,7.53,8.22,3.09.16,7.92-2.39,13.51-5.45,0,1.1,0,1.84,1.6,1.93,3.62.19,9.63-3.34,16.46-7.07C80.61,36.91,88.1,38,93.9,37.57l.71-.06c4.76,5.63,7.61,12.55,12.5,12.54,2.67,0,4.47-2.08,6.47-4.74.33,1.35,1.08,2.19,3,2.29a8.83,8.83,0,0,0,4.54-1.18,4.88,4.88,0,0,0,1.07.12c2,0,3.56-1.2,5.05-2.94.59-.24,1.21-.46,1.89-.69a3,3,0,0,0,2.56,1.19c3.19.16,5.15-1.89,10.68-4,4.2-.53,8.51-.79,12.86-.9a45.28,45.28,0,0,0,14.5,2.12A27.94,27.94,0,0,0,179,39.61c10.9.41,21.16.71,29.54-.78,4-.71,5.95-1.62,7-2.61a73.55,73.55,0,0,0,8.12-.9,23.1,23.1,0,0,0,5-1.36c13.54,3.19,26.14,7.62,31.64,8.95-2.16,1-3.68,1.58-2.91,1.68,1.5.21,7.84-1.9,16.37-4.46-1.18.53-1.81.88-1.25.95,2,.28,13.35-3.84,26.88-7.48,1.41-.27,2.81-.51,4.21-.74.35,1.72,1.4,3.48,8.08,4.67,7.13,1.27,15.65,1.24,24.76,1a25.75,25.75,0,0,0,14,4.1c7.16.24,13.31-1.66,19.18-3.6a43,43,0,0,0,4.51-.6c1.89.17,3.76.38,5.61.65,16.92,2.47,18.89,7.54,23.84,7.27a3.34,3.34,0,0,0,2.22-.78c2.36,3.17,4.25,5.8,7.27,5.81,3.57,0,6-3.65,9-7.82,1.87,2.45,3.61,4.31,6.14,4.31,4.92,0,7.77-7,12.59-12.64,2.57-.45,5.23-1,7.87-1.63,11.82,4.15,24.17,13.83,30.09,13.5,3.51-.19-.89-3.6,5.12-7.06,4.08,2.15,7.56,3.69,10,3.55,3.19-.18-.13-3,3.7-6.1a8.81,8.81,0,0,0,4.24-2.15c5.79-.83,12.28-1.44,18.77-1.9q2.88-16.65,5.78-33.29c-5.41-.1-13.41-.18-23.11,0-17.37.31-29,1.25-36.89,1.73-12.89.8-27.69.55-57.28.07C375,1.35,371.13.46,344.59.5c-13.72,0-10.65.25-37.81.55-37.15.42-35.17-.11-59.11.36-17.19.33-26.61.77-47.56.87-4.74,0-10.64.05-18.66,0-18.53-.12-23.84-.49-40.45-.44-6.69,0-7.56.09-13.77.07-10.85,0-15-.27-23.15-.35-6.81-.07-9.21,0-24,.28-10.45.18-24.06.37-32.44.44C36.27,2.37,20.43,2.35,1,1.84ZM253.23,33.4c.18-.12.38-.22.59-.34,4.43,1.24,8.55,2.49,12.09,3.57A32.89,32.89,0,0,1,261.55,39c-2.4-1.09-7.08-3-9-5A5.81,5.81,0,0,1,253.23,33.4Zm-.63,3.93c3.2,1,5.83,1.77,7.67,2.21-1,.45-1.89.83-2.45,1.11A18.4,18.4,0,0,1,252.6,37.33Zm9,5c-.76-.34-1.73-.76-2.78-1.24,1.8-.34,4.89-1.27,8.83-2.47C266.31,40,263.79,41.31,261.55,42.34Z"/></svg>