<svg id="Layer_1" data-name="Layer 1" xmlns="http://www.w3.org/2000/svg" viewBox="0 0 299.9 423.2"><defs><style>.cls-1{fill:#fff;}</style></defs><path class="cls-1" d="M183.27,316.56H110v-20c0-23.32,3.34-43.32,13.33-56.65C130,223.26,146.62,206.6,170,186.61c23.32-16.66,36.65-30,40-36.66q10-15,10-30a55.22,55.22,0,0,0-16.66-40,81.9,81.9,0,0,0-50-16.66C130,63.31,113.3,70,100,80,86.64,93.3,76.64,110,73.31,133.29L0,123.29C0,90,16.66,60,43.32,36.65S103.3,0,150,0c43.32,0,80,13.33,110,36.65C286.57,60,299.9,90,299.9,120a81.86,81.86,0,0,1-16.66,50c-10,16.66-30,40-63.31,66.64-16.66,13.33-26.66,23.33-30,33.32C183.27,279.91,183.27,293.24,183.27,316.56ZM110,423.2v-80h73.31v80Z"/></svg>