<svg id="Layer_1" data-name="Layer 1" xmlns="http://www.w3.org/2000/svg" width="511.99" height="512" viewBox="0 0 511.99 512"><defs><style>.cls-1{fill:#e4a672;}.cls-2{fill:#b86f50;}.cls-3{fill:#fff;}.cls-4{fill:#3fa9f5;}.cls-5{fill:#52ae60;}.cls-6{fill:#00d8ff;}.cls-7{fill:#ead4aa;}.cls-8{fill:#a6dc73;}.cls-9{fill:#00e5ff;}.cls-10{fill:#72df5a;}.cls-11{fill:#4effff;}.cls-12,.cls-13,.cls-14,.cls-15,.cls-16,.cls-17,.cls-18,.cls-19,.cls-21,.cls-22,.cls-23,.cls-24,.cls-25,.cls-26,.cls-27,.cls-28,.cls-29,.cls-30{fill:none;stroke-miterlimit:10;}.cls-12,.cls-13,.cls-14,.cls-15,.cls-16,.cls-17,.cls-18,.cls-19{stroke:#9badb7;}.cls-12,.cls-21,.cls-30{stroke-width:6px;}.cls-13{stroke-width:6.8px;}.cls-14{stroke-width:3.39px;}.cls-15{stroke-width:5.5px;}.cls-16{stroke-width:4.5px;}.cls-17{stroke-width:6.35px;}.cls-18{stroke-width:5.23px;}.cls-19{stroke-width:4.66px;}.cls-20{fill:#c0cbdc;}.cls-21,.cls-22,.cls-23,.cls-24,.cls-25,.cls-26,.cls-27{stroke:#57bf67;}.cls-22{stroke-width:4.41px;}.cls-23{stroke-width:7.8px;}.cls-24{stroke-width:3.9px;}.cls-25{stroke-width:6.1px;}.cls-26{stroke-width:11px;}.cls-27{stroke-width:3.36px;}.cls-28{stroke:#aee17d;stroke-width:5px;}.cls-29,.cls-30{stroke:#68cc52;}.cls-29{stroke-width:12px;}.cls-31{fill:#e7c380;}.cls-32{fill:#a7cbdc;}</style></defs><rect class="cls-1" y="384" width="128" height="128"/><path class="cls-2" d="M145.3,386c0,2.07-7.7,1.3-17.3,2.58-8.45,1.13-18.4,3.84-26,11.49C85.63,416.68,96.58,440,79.37,453c-4.86,3.66-7.45,3.1-28.74,6.22C26.78,462.72,9.9,466.38,0,468.38v-4.54c5.5-2.22,12.51-4.67,19.37-6.69,34-10,41-2.41,53-10.52,22.14-14.87,10.12-48,27.89-62.63a24.91,24.91,0,0,1,3.22-2.26c7.53-4.44,16.67-4.81,24.48-3.52,7.08,1.17,13.06,3.69,15.76,5.78C144.76,384.77,145.31,385.48,145.3,386Z"/><path class="cls-2" d="M133,480.54c.17.61-1.74,1.83-4.95,3.34A193.47,193.47,0,0,1,103,493c-34,10-41,2.4-53,10.51a28.89,28.89,0,0,0-8.34,8.5H33.4c1.56-5.63,4.19-10.77,9.63-14.87,4.85-3.65,7.45-3.09,28.74-6.22,29.19-4.28,47.93-8.8,56.23-10.24C131.16,480.12,132.8,480,133,480.54Z"/><rect class="cls-3" width="128" height="128"/><rect class="cls-3" x="128" width="128" height="128"/><rect class="cls-4" x="384" width="127.99" height="128"/><rect class="cls-3" y="128.01" width="128" height="128"/><rect class="cls-5" x="256" y="128.01" width="128" height="128"/><rect class="cls-6" x="384" y="128.01" width="128" height="128"/><rect class="cls-7" y="256" width="128" height="128"/><rect class="cls-8" x="128" y="256" width="128" height="128"/><rect class="cls-8" x="256" y="256" width="128" height="128"/><rect class="cls-9" x="384" y="256" width="128" height="128"/><rect class="cls-7" x="128" y="384" width="128" height="128"/><rect class="cls-10" x="256.44" y="384" width="128" height="128"/><rect class="cls-10" x="256" y="384" width="128" height="128"/><rect class="cls-11" x="384" y="384" width="127.99" height="128"/><path class="cls-12" d="M51,30.78C61.57,30,77.53,29.53,75.4,45.58c1.2-9.53-4.47-16.15-17.22-14.41-14.27-2.62-18.75,7.27-15.8,16C39.57,40,42.61,30.78,51,30.78Z"/><path class="cls-13" d="M10.91,78.65a19.24,19.24,0,0,0-6.83.1l-.59-.12v-.75A30.41,30.41,0,0,1,10.91,78.65Z"/><path class="cls-13" d="M14.4,82.09a13.76,13.76,0,0,0-7-3.88A11.6,11.6,0,0,1,14.4,82.09Z"/><path class="cls-13" d="M17.93,95.23c.27-5.45-.9-10.06-3.53-13.14C16.88,84.77,18.33,88.91,17.93,95.23Z"/><path class="cls-14" d="M54.75,116.37c5.27-.47,13.25-.8,12.19,9.44.6-6.08-2.23-10.3-8.61-9.19-7.13-1.67-9.38,4.63-7.9,10.23C49,122.22,50.54,116.37,54.75,116.37Z"/><path class="cls-12" d="M59.58,151.8c10.55-.74,26.5-1.25,24.38,14.8,1.2-9.53-4.47-16.15-17.22-14.41-14.27-2.62-18.75,7.27-15.8,16.05C48.13,161,51.17,151.8,59.58,151.8Z"/><path class="cls-15" d="M6.48,201.36a15,15,0,0,0-3.66-.15v-.37A23,23,0,0,1,6.48,201.36Z"/><path class="cls-15" d="M3.66,200.84a10,10,0,0,1,5.64,2.8A12,12,0,0,0,3.66,200.84Z"/><path class="cls-15" d="M12.39,215.33c.51-4.78-.44-8.83-2.87-11.46C11.78,206.13,13,209.72,12.39,215.33Z"/><path class="cls-16" d="M50.91,241.3c7-.09,17.46.28,15,13.89,1.43-8.08-1.85-14-10.33-13.19-9.17-3-12.77,5.25-11.42,12.91C42.79,248.55,45.4,240.87,50.91,241.3Z"/><path class="cls-16" d="M121,201.67c7-.1,17.46.28,15,13.89,1.42-8.08-1.85-14-10.33-13.2-9.18-3-12.78,5.26-11.42,12.92C112.93,208.92,115.53,201.24,121,201.67Z"/><path class="cls-16" d="M169.32,113c7-.09,17.46.29,15,13.89,1.42-8.08-1.86-14-10.33-13.19-9.18-3-12.78,5.25-11.43,12.91C161.2,120.22,163.81,112.53,169.32,113Z"/><path class="cls-17" d="M256.89,61.91V62a17.53,17.53,0,0,0-4.66-.06c-12.5-4.25-17.47,7.75-15.68,18.89-1.81-9.25,1.8-20.46,9.32-19.87A40.15,40.15,0,0,1,256.89,61.91Z"/><path class="cls-18" d="M172,28.69c9.48.11,23.79.79,20.83,14.18,1.7-7.95-2.93-13.93-14.45-13.35-12.58-3.2-17.24,4.82-15.18,12.44C161.16,35.63,164.48,28.11,172,28.69Z"/><path class="cls-19" d="M122.49,76.29c7.56,0,19,.42,16.38,13.84,1.49-8-2.11-13.87-11.31-13.11-10-3-13.82,5.09-12.29,12.66C113.74,83.4,116.51,75.83,122.49,76.29Z"/><rect class="cls-20" x="256" width="128" height="128"/><rect class="cls-5" x="128" y="128.01" width="128" height="128"/><path class="cls-21" d="M192.2,147.81c-.27.27-6.5-9.34-15-9-8.06.29-13.36,9.4-13.61,9.17s4.71-10.94,13.76-11.25C186.77,136.39,192.47,147.54,192.2,147.81Z"/><path class="cls-22" d="M236.08,179.4c-.19.19-4.77-6.87-11-6.65-5.93.22-9.83,6.91-10,6.74s3.46-8,10.11-8.26C232.09,171,236.28,179.19,236.08,179.4Z"/><path class="cls-23" d="M182.1,212.28c-.34.35-8.45-12.13-19.44-11.74-10.47.38-17.36,12.22-17.68,11.92s6.11-14.22,17.87-14.61C175.05,197.44,182.45,211.92,182.1,212.28Z"/><path class="cls-24" d="M216.91,246.93c-.17.18-4.22-6.07-9.72-5.87-5.23.19-8.68,6.11-8.84,6s3.06-7.11,8.94-7.31C213.39,239.51,217.09,246.75,216.91,246.93Z"/><path class="cls-25" d="M361.85,171.19c-.27.27-6.62-9.51-15.22-9.2-8.2.3-13.59,9.57-13.84,9.33s4.78-11.13,14-11.44C356.33,159.57,362.12,170.9,361.85,171.19Z"/><path class="cls-26" d="M317.43,233.57c-.5.51-12.34-17.74-28.41-17.16-15.3.56-25.38,17.86-25.84,17.41s8.94-20.77,26.12-21.35C307.13,211.88,317.94,233,317.43,233.57Z"/><path class="cls-27" d="M367.07,221.79c-.15.15-3.64-5.24-8.38-5.06-4.52.16-7.49,5.26-7.63,5.13s2.64-6.13,7.71-6.3C364,215.39,367.22,221.63,367.07,221.79Z"/><path class="cls-27" d="M293.31,154.59c-.15.15-3.64-5.23-8.38-5.06-4.51.16-7.48,5.26-7.62,5.13s2.63-6.12,7.7-6.29C290.27,148.19,293.46,154.43,293.31,154.59Z"/><path class="cls-28" d="M317.53,277.22c.26.27,6.5-9.34,15-9,8.06.29,13.36,9.4,13.61,9.17s-4.71-10.94-13.76-11.24C323,265.79,317.26,276.94,317.53,277.22Z"/><path class="cls-28" d="M273.64,308.8c.19.2,4.78-6.87,11-6.64,5.92.21,9.82,6.91,10,6.74s-3.46-8-10.11-8.27C277.63,300.4,273.44,308.6,273.64,308.8Z"/><path class="cls-28" d="M327.62,341.69c.34.35,8.45-12.14,19.44-11.74,10.47.38,17.36,12.21,17.68,11.91s-6.11-14.21-17.87-14.61C334.67,326.84,327.27,341.33,327.62,341.69Z"/><path class="cls-28" d="M292.81,376.34c.17.17,4.22-6.07,9.72-5.87,5.23.19,8.68,6.1,8.84,5.95s-3.06-7.11-8.94-7.3C296.33,368.91,292.63,376.16,292.81,376.34Z"/><path class="cls-28" d="M147.88,300.59c.26.27,6.61-9.5,15.21-9.19,8.2.29,13.6,9.56,13.84,9.32s-4.78-11.12-14-11.43C153.39,289,147.6,300.31,147.88,300.59Z"/><path class="cls-28" d="M192.3,363c.49.51,12.34-17.74,28.41-17.16,15.29.55,25.37,17.85,25.83,17.41s-8.93-20.78-26.12-21.35C202.6,341.28,191.78,362.45,192.3,363Z"/><path class="cls-28" d="M142.65,351.19c.15.15,3.65-5.23,8.39-5.06,4.51.16,7.48,5.27,7.62,5.14S156,345.14,151,345C145.69,344.79,142.5,351,142.65,351.19Z"/><path class="cls-28" d="M216.41,284c.15.15,3.64-5.23,8.38-5.06,4.51.16,7.49,5.27,7.62,5.14s-2.63-6.13-7.7-6.3C219.45,277.59,216.26,283.84,216.41,284Z"/><path class="cls-29" d="M312.72,409.58c-.26.27-6.5-9.34-15-9-8.06.3-13.37,9.41-13.61,9.17s4.7-10.94,13.75-11.24C307.29,398.16,313,409.3,312.72,409.58Z"/><path class="cls-30" d="M357.75,420.17c-.1.09-2.39-3.44-5.5-3.33-3,.11-4.91,3.46-5,3.37s1.73-4,5.05-4.13S357.85,420.06,357.75,420.17Z"/><path class="cls-29" d="M364.74,498.84c-.34.35-8.44-12.14-19.44-11.74-10.47.38-17.36,12.21-17.68,11.91s6.12-14.21,17.87-14.61C357.69,484,365.09,498.48,364.74,498.84Z"/><path class="cls-29" d="M290.61,465.22c-.17.17-4.23-6.07-9.72-5.87-5.24.19-8.68,6.11-8.84,6S275.1,458.2,281,458C287.08,457.8,290.78,465,290.61,465.22Z"/><rect class="cls-31" x="155.07" y="411.07" width="5.78" height="5.78" transform="translate(32.19 -10.89) rotate(4.4)"/><rect class="cls-31" x="224.41" y="421.67" width="9.56" height="9.56" transform="translate(-25.54 14.75) rotate(-3.49)"/><rect class="cls-31" x="146.39" y="474.06" width="12.28" height="12.28" transform="translate(37.25 -10.28) rotate(4.4)"/><rect class="cls-31" x="225.38" y="469.9" width="7.58" height="7.58"/><rect class="cls-31" x="92.93" y="355.74" width="5.78" height="5.78" transform="translate(163.86 723.55) rotate(-175.6)"/><rect class="cls-31" x="20.03" y="340.19" width="9.56" height="9.56" transform="translate(70.57 687.78) rotate(176.51)"/><rect class="cls-31" x="82.57" y="284.81" width="12.28" height="12.28" transform="translate(154.85 587.84) rotate(-175.6)"/><rect class="cls-31" x="18.54" y="267.74" width="7.58" height="7.58" transform="translate(44.67 543.07) rotate(180)"/><path class="cls-32" d="M345,115.8c-.4,1.42-13.37,1-24.52-6.66a33.78,33.78,0,0,1-6.59-5.78c-8.56-9.82-4.49-17.42-10.22-27.11-6.15-10.4-13.79-6.66-23.78-19.56-6.44-8.31-9.26-17.6-8.22-18.22s4.95,8.43,15,16.85c13.63,11.4,23.14,8.71,27.42,17.59,4.09,8.49-3.38,13.44,0,22.89C319.67,111.36,345.57,113.79,345,115.8Z"/><path class="cls-32" d="M372.16,93.84c-2,4.16-23,3.87-31.39-7.78-10.83-15,9-34.74-.11-51.71-11.56-21.65-57.81-15.7-57.75-16.63S343.8,11.82,352,33.57c3.48,9.24-5.57,15.32-2.35,29.6C353.94,82.32,374.3,89.41,372.16,93.84Z"/></svg>