<svg id="Layer_1" data-name="Layer 1" xmlns="http://www.w3.org/2000/svg" viewBox="0 0 969.07 772.07"><defs><style>.cls-1{fill:#f6dad2;}.cls-2{fill:#754c29;}.cls-3{fill:#8b5e3c;}.cls-4{fill:#c29862;}.cls-5{fill:#c49a6c;}.cls-6{fill:#e68790;}.cls-7{fill:#231f20;}</style></defs><path class="cls-1" d="M826.78,423.65c3.38,25.5,25.7,49.78,41.32,91.66,7.4,19.83,5.82,23.57,14.56,42.21,9.72,20.72,25.11,41.64,28.07,39.93,2.18-1.26-4.4-13.74-10.59-40.51-3.7-16-4.17-23.73-5.83-33.14-4.66-26.28-14.48-30.27-31.53-74.67-16.8-43.74-21.73-67.92-37.15-68.51-3.78-.14-9.51,1.09-11.63,4.05-3.55,5,5.55,11.14,10.3,25.86C826.17,416.3,826.31,420.14,826.78,423.65Z"/><path class="cls-2" d="M614.92,737.75h0a59.23,59.23,0,0,1-59.23-59.23V583.88a59.23,59.23,0,0,1,59.23-59.23h0a59.24,59.24,0,0,1,59.24,59.23v94.64A59.24,59.24,0,0,1,614.92,737.75Z"/><path class="cls-2" d="M384.81,737.75h0a59.24,59.24,0,0,1-59.24-59.23V583.88a59.24,59.24,0,0,1,59.24-59.23h0A59.23,59.23,0,0,1,444,583.88v94.64A59.23,59.23,0,0,1,384.81,737.75Z"/><ellipse class="cls-3" cx="573.54" cy="436.21" rx="280.02" ry="250.97"/><path class="cls-4" d="M689.85,365.66h0A74.88,74.88,0,0,1,584,362l-77.59-83a74.86,74.86,0,0,1,3.62-105.81h0a74.88,74.88,0,0,1,105.81,3.62l77.6,83A75.05,75.05,0,0,1,689.85,365.66Z"/><path class="cls-4" d="M23.7,345.47h0a74.86,74.86,0,0,0,105.81-3.62l77.6-83A74.87,74.87,0,0,0,203.48,153h0a74.86,74.86,0,0,0-105.81,3.62l-77.6,83A75,75,0,0,0,23.7,345.47Z"/><circle class="cls-5" cx="346.5" cy="352.79" r="253.42"/><path class="cls-1" d="M516.39,772.07h0a59.25,59.25,0,0,1-59.24-59.24V618.2A59.25,59.25,0,0,1,516.39,559h0a59.23,59.23,0,0,1,59.23,59.24v94.63A59.24,59.24,0,0,1,516.39,772.07Z"/><path class="cls-1" d="M746.5,772.07h0a59.24,59.24,0,0,1-59.23-59.24V618.2A59.24,59.24,0,0,1,746.5,559h0a59.24,59.24,0,0,1,59.24,59.24v94.63A59.25,59.25,0,0,1,746.5,772.07Z"/><path class="cls-6" d="M496.78,415.53h0a81.86,81.86,0,0,1-82,81.68h-131c-45.22,0-82-36.5-82-81.68h0a81.85,81.85,0,0,1,82-81.67h131C460.12,333.86,496.78,370.5,496.78,415.53Z"/><path class="cls-1" d="M248.9,185.23c-12.29,16.59-35.64,13.6-43.47,12.76a59,59,0,0,1-39.82-21.73l-59.37-73.69c-5-7-15.26-23.48-12.77-43.48,5.33-42.82,64.75-66,73.33-57.26,7,7.09-24.63,29.93-20.34,66.09,3.64,30.64,31.66,59.24,63.55,68.64a89.67,89.67,0,0,0,38.13,2.54C257.66,154.48,258,172.92,248.9,185.23Z"/><path class="cls-7" d="M295.79,444.79c-3.05,1.64-14.39,7.74-24.93,2.49-10.87-5.41-12.63-18.79-13.06-22-1.52-11.52,1.8-32.3,19.55-38a30.2,30.2,0,0,1,38,19.55C321,424.59,305.89,439.35,295.79,444.79Z"/><path class="cls-7" d="M402.71,444.79c3,1.64,14.38,7.74,24.92,2.49,10.87-5.41,12.63-18.79,13.06-22,1.52-11.52-1.8-32.3-19.54-38a30.21,30.21,0,0,0-38,19.55C377.46,424.59,392.61,439.35,402.71,444.79Z"/><circle class="cls-7" cx="246.06" cy="279.88" r="30.64"/><circle class="cls-7" cx="449.24" cy="279.88" r="30.64"/><path class="cls-1" d="M463.77,195.89c12.29,16.6,35.64,13.61,43.47,12.77a59,59,0,0,0,39.82-21.73l59.37-73.7c5-7,15.26-23.47,12.77-43.47-5.34-42.82-64.75-66-73.33-57.27-7,7.09,24.63,29.93,20.33,66.1-3.64,30.64-31.66,59.23-63.55,68.63a89.5,89.5,0,0,1-38.13,2.54C455,165.14,454.65,183.59,463.77,195.89Z"/><path class="cls-3" d="M912.38,577.54c-.85-.13-12.35-1.65-19,5.26-11.39,11.79,2.76,36.75,3.66,38.3,6.11,10.5,16.32,19.36,19.45,17.49,2.65-1.59-.47-10.41.75-10.81,2.33-.74,13.84,31.11,16.62,30.09,1.28-.48-.46-6.14,1.15-17.44.75-5.3,1.68-9.72,2.14-9.67.68.07-.79,9.73,1,10.22s6.88-9,9-19.17c1.4-6.6,2.52-11.8.46-17.61-2.17-6.16-7.89-10.15-19.32-18.13C920.74,580.83,916.9,578.2,912.38,577.54Z"/></svg>