<?xml version="1.0" encoding="utf-8"?>
<!-- Generator: Adobe Illustrator 26.1.0, SVG Export Plug-In . SVG Version: 6.00 Build 0)  -->
<svg version="1.1" id="Ebene_1" xmlns="http://www.w3.org/2000/svg" xmlns:xlink="http://www.w3.org/1999/xlink" x="0px" y="0px"
	 viewBox="0 0 1080 1080" style="enable-background:new 0 0 1080 1080;" xml:space="preserve">
<style type="text/css">
	.st0{fill:#9C4751;}
	.st1{fill:#F7DAD2;}
	.st2{fill:#EFABA9;}
	.st3{fill:#312524;}
	.st4{fill:#E68890;}
</style>
<path class="st0" d="M666.1,874.5L666.1,874.5c-32.2,0-58.4-26.1-58.4-58.4v-93.3c0-32.2,26.1-58.4,58.4-58.4l0,0
	c32.2,0,58.4,26.1,58.4,58.4v93.3C724.5,848.4,698.3,874.5,666.1,874.5z"/>
<path class="st0" d="M474,874.5L474,874.5c-32.2,0-58.4-26.1-58.4-58.4v-93.3c0-32.2,26.1-58.4,58.4-58.4l0,0
	c32.2,0,58.4,26.1,58.4,58.4v93.3C532.4,848.4,506.2,874.5,474,874.5z"/>
<path class="st1" d="M90.3,421.4L90.3,421.4c31.7,29.6,81.4,27.9,111-3.8l81.4-87.1c29.6-31.7,27.9-81.4-3.8-111l0,0
	c-31.7-29.6-81.4-27.9-111,3.8l-81.4,87.1C57,342.2,58.7,391.8,90.3,421.4z"/>
<path class="st0" d="M958.1,458.6c-8.9-1.7-17.1,5.1-17.1,14.2v0.2c0,7,5,12.8,11.9,14.2c29.5,5.7,51.5,32.4,50.1,63.8
	c-1.5,31.7-27.2,57.5-59,59c-17.2,0.8-33-5.5-44.7-16.2c-0.9,11.1-2.4,21.9-4.7,32.5c13.9,8.3,30.3,13,47.7,12.7
	c49-0.7,89-40.7,89.7-89.7C1032.6,504.3,1000.6,466.7,958.1,458.6z"/>
<path class="st2" d="M600.9,417.6l-81.4-87.1c-19.4-20.8-25.3-49.2-18.2-74.7C471.1,243.1,437.9,236,403,236
	c-36.2,0-70.6,7.6-101.7,21.3c6.5,25.1,0.4,52.9-18.6,73.3l-81.4,87.1c-12.9,13.8-29.6,21.9-46.9,24.2c-2.9,15.3-4.4,31-4.4,47.1
	c0,139.7,113.3,253,253,253s253-113.3,253-253c0-16-1.5-31.6-4.3-46.7C633,440.7,614.8,432.5,600.9,417.6z"/>
<path class="st1" d="M548,543.7L548,543.7c0,45.6-37,82.7-82.7,82.7H339.8c-45.6,0-82.7-37-82.7-82.7l0,0c0-45.6,37-82.7,82.7-82.7
	h125.5C511,461,548,498,548,543.7z"/>
<circle class="st3" cx="288" cy="417" r="24"/>
<circle class="st3" cx="516" cy="417" r="24"/>
<path class="st0" d="M332.5,580L332.5,580c-11.3,0-20.5-9.2-20.5-20.5v-32c0-11.3,9.2-20.5,20.5-20.5l0,0c11.3,0,20.5,9.2,20.5,20.5
	v32C353,570.8,343.8,580,332.5,580z"/>
<path class="st0" d="M471.5,580L471.5,580c-11.3,0-20.5-9.2-20.5-20.5v-32c0-11.3,9.2-20.5,20.5-20.5l0,0c11.3,0,20.5,9.2,20.5,20.5
	v32C492,570.8,482.8,580,471.5,580z"/>
<g>
	<path class="st4" d="M634,438.7c0.5,0.2,1.1,0.3,1.6,0.5C635.1,439,634.5,438.9,634,438.7z"/>
	<path class="st4" d="M630.5,437.5c0.6,0.2,1.1,0.4,1.7,0.6C631.6,437.9,631.1,437.7,630.5,437.5z"/>
	<path class="st4" d="M627.1,436.1c0.6,0.2,1.1,0.5,1.7,0.7C628.2,436.6,627.6,436.3,627.1,436.1z"/>
	<path class="st4" d="M637.5,439.8c0.5,0.1,1.1,0.3,1.6,0.4C638.6,440,638,439.9,637.5,439.8z"/>
	<path class="st4" d="M644.6,441.4c0.4,0.1,0.7,0.1,1.1,0.2C645.4,441.5,645,441.4,644.6,441.4z"/>
	<path class="st4" d="M620.4,432.8c0.6,0.3,1.1,0.6,1.7,0.9C621.5,433.4,620.9,433.1,620.4,432.8z"/>
	<path class="st4" d="M641.1,440.6c0.5,0.1,1,0.2,1.5,0.3C642,440.8,641.5,440.8,641.1,440.6z"/>
	<path class="st4" d="M623.7,434.5c0.6,0.3,1.1,0.5,1.7,0.8C624.8,435.1,624.2,434.8,623.7,434.5z"/>
	<path class="st4" d="M603.7,420.4c-0.9-0.9-1.8-1.8-2.7-2.8C601.8,418.6,602.7,419.5,603.7,420.4z"/>
	<path class="st4" d="M731.4,335.4c11.4,29.1,4.7,63.4-19.5,86l0,0c-16.9,15.8-38.9,22.7-60.2,20.9c2.8,15.1,4.3,30.8,4.3,46.7
		c0,122.4-87,224.6-202.5,248c28.1,33.4,64.8,59.4,106.5,74.7V747c0-32,26-58,58-58l0,0c32,0,58,26,58,58v78.3
		c26.8-3.1,52.4-10.3,76-21.1V747c0-32,26-58,58-58l0,0c19.8,0,37.3,9.9,47.7,25c26.7-40.1,42.3-88.3,42.3-140
		C900,463.9,829.6,370.2,731.4,335.4z"/>
	<path class="st4" d="M604.6,421.3c0.6,0.6,1.2,1.2,1.9,1.7C605.9,422.5,605.3,421.9,604.6,421.3z"/>
	<path class="st4" d="M617.1,430.9c0.6,0.3,1.1,0.7,1.7,1C618.2,431.6,617.7,431.2,617.1,430.9z"/>
	<path class="st4" d="M607.7,424.1c0.6,0.5,1.2,1,1.7,1.4C608.9,425.1,608.3,424.6,607.7,424.1z"/>
	<path class="st4" d="M613.9,428.8c0.6,0.4,1.1,0.8,1.7,1.1C615,429.6,614.5,429.2,613.9,428.8z"/>
	<path class="st4" d="M610.8,426.5c0.6,0.4,1.1,0.9,1.7,1.3C611.9,427.4,611.4,427,610.8,426.5z"/>
</g>
<path class="st1" d="M711.9,421.4L711.9,421.4c-31.7,29.6-81.4,27.9-111-3.8l-81.4-87.1c-29.6-31.7-27.9-81.4,3.8-111l0,0
	c31.7-29.6,81.4-27.9,111,3.8l81.4,87.1C745.3,342.2,743.6,391.8,711.9,421.4z"/>
<path class="st1" d="M810,899L810,899c-32,0-58-26-58-58v-94c0-32,26-58,58-58l0,0c32,0,58,26,58,58v94C868,873,842,899,810,899z
	 M676,841v-94c0-32-26-58-58-58l0,0c-32,0-58,26-58,58v94c0,32,26,58,58,58l0,0C650,899,676,873,676,841z"/>
</svg>
